<?xml version="1.0" encoding="utf-8" ?>
<svg xmlns="http://www.w3.org/2000/svg" xmlns:xlink="http://www.w3.org/1999/xlink" width="1024" height="1024">
	<defs>
		<linearGradient id="gradient_0" gradientUnits="userSpaceOnUse" x1="447.10214" y1="67.749817" x2="379.87491" y2="125.55497">
			<stop offset="0" stop-color="#E4F6F2"/>
			<stop offset="1" stop-color="#9DB8F8"/>
		</linearGradient>
	</defs>
	<path fill="url(#gradient_0)" transform="scale(2 2)" d="M380.873 75.2493L423.438 75.2492C433.25 75.2408 448.814 72.9525 457.21 79.2569C473.292 91.3331 466.113 115.915 446.311 118.49C443.002 118.792 439.693 118.529 436.377 118.507L395.299 118.497C390.048 118.505 384.363 118.853 379.177 118.002C355.894 114.182 353.303 79.6138 380.873 75.2493Z"/>
	<defs>
		<linearGradient id="gradient_1" gradientUnits="userSpaceOnUse" x1="355.95349" y1="279.32104" x2="453.40036" y2="243.71318">
			<stop offset="0" stop-color="#B3CCF0"/>
			<stop offset="1" stop-color="#EAFAF4"/>
		</linearGradient>
	</defs>
	<path fill="url(#gradient_1)" transform="scale(2 2)" d="M387.956 172.359C388.521 174.813 387.967 180.724 387.962 183.614L387.956 216.271L415.547 216.262C446.64 216.272 449.981 218.159 449.977 252.247C449.976 262.285 450.068 272.332 449.96 282.369C449.693 307.078 437.806 306.875 417.112 306.873L387.956 306.861C387.895 312.658 388.319 318.617 387.956 324.384C387.315 321.111 387.954 310.742 387.956 306.861C359.237 308.718 359.847 294.688 359.885 271.924L359.762 235.85C359.852 218.183 374.314 216.235 387.956 216.271L387.951 187.852C387.951 182.705 387.749 177.499 387.956 172.359Z"/>
	<path fill="#96B9F7" transform="scale(2 2)" d="M387.956 324.384C387.944 332.682 389.62 341.846 383.948 348.728C379.661 353.928 345.901 371.576 335.971 377.218L267.266 416.004C256.601 422.089 245.992 428.495 234.975 433.922C223.662 439.494 216.833 435.416 207.226 429.907L78.8513 357.133C61.7929 347.679 61.4821 347.266 61.477 329.051L61.477 181.417C61.479 174.671 60.5247 166.978 65.298 161.524C70.1169 156.018 85.951 148.723 92.74 144.92L204.7 82.0487C228.782 68.2659 227.007 72.5047 250.595 85.5696L370.07 152.6C378.727 157.489 387.498 160.915 387.956 172.359C387.749 177.499 387.951 182.705 387.951 187.852L387.956 216.271C374.314 216.235 359.852 218.183 359.762 235.85L359.885 271.924C359.847 294.688 359.237 308.718 387.956 306.861C387.954 310.742 387.315 321.111 387.956 324.384Z"/>
	<defs>
		<linearGradient id="gradient_2" gradientUnits="userSpaceOnUse" x1="158.12364" y1="323.22461" x2="290.85934" y2="184.28149">
			<stop offset="0" stop-color="#9DBFF2"/>
			<stop offset="1" stop-color="#F7FFF3"/>
		</linearGradient>
	</defs>
	<path fill="url(#gradient_2)" transform="scale(2 2)" d="M220.632 154.574C229.912 153.497 238.954 160.79 246.432 165.258L299.775 196.676C317.024 206.766 316.993 204.264 316.997 226.426L317.004 278.315C317.011 303.576 316.996 302.828 297.102 313.949L247.476 342.045C240.965 345.678 233.785 350.87 226.308 352.183C218.611 353.005 213.92 349.827 207.573 345.997L194.228 337.897C185.288 332.551 140.639 308.264 135.894 302.347C130.445 295.554 132.223 287.776 132.075 279.807C131.8 265.04 131.782 250.322 131.741 235.555L131.693 222.495C131.607 206.433 134.276 203.989 148.681 195.538L198.502 165.757C205.406 161.618 212.471 155.819 220.632 154.574Z"/>
</svg>
