<?xml version="1.0" encoding="utf-8" ?>
<svg xmlns="http://www.w3.org/2000/svg" xmlns:xlink="http://www.w3.org/1999/xlink" width="1024" height="1024">
	<path fill="#7C9EF7" transform="scale(2 2)" d="M53.2451 215.151C53.8716 216.309 53.7495 217.022 53.3793 218.268C54.873 225.557 64.2299 236.919 67.8803 243.584C68.8513 245.357 70.4295 250.115 71.2717 251.166C76.0216 257.097 72.9427 255.678 74.944 258.818C76.9407 261.95 79.0628 263.782 81.6664 268.097C85.8049 274.957 86.5052 274.591 88.6476 282.359C89.5256 285.543 93.0381 293.87 97.146 293.045C97.5753 293.428 97.6448 293.839 97.8084 294.372L98.1173 294.571C100.145 291.445 99.5496 297.459 100.891 297.734C106.627 317.446 115.686 336.648 128.146 353.05C149.47 381.123 185.317 404.808 219.941 412.904C226.419 414.419 233.287 414.962 239.595 416.963C239.885 412.601 239.576 408.21 239.595 403.84C240.957 399.029 237.672 398.369 242.172 397.604L241.699 397.94L242.196 397.617C245.275 400.403 261.605 412.627 257.76 416.454C255.982 418.224 250.354 416.851 248.006 416.907C245.97 416.956 249.386 416.586 250.45 420.751C250.678 421.642 251.733 422.51 251.886 423.298C252.793 427.974 254.655 423.176 259.956 429.138C263.443 433.06 268.422 433.19 272.74 435.813C278.154 439.1 286.071 444.094 291.168 447.934C294.734 450.621 296.648 454.233 301.573 454.908L301.586 455.232C299.04 456.48 293.806 456.516 292.164 457.998C228.224 470.428 159.984 447.982 112.997 403.652C61.7594 355.313 40.8263 284.326 53.2451 215.151Z"/>
	<defs>
		<linearGradient id="gradient_0" gradientUnits="userSpaceOnUse" x1="164.71465" y1="355.34079" x2="393.58524" y2="100.62733">
			<stop offset="0" stop-color="#76A9F5"/>
			<stop offset="1" stop-color="#E6EBF6"/>
		</linearGradient>
	</defs>
	<path fill="url(#gradient_0)" transform="scale(2 2)" d="M53.2451 215.151C62.5879 167.659 87.1835 124.995 124.911 94.1909C179.435 49.6733 255.252 35.5058 322.112 57.9523C419.596 90.68 478.831 193.547 458.642 294.498C442.043 377.495 375.162 443.108 292.164 457.998C293.806 456.516 299.04 456.48 301.586 455.232L301.573 454.908C296.648 454.233 294.734 450.621 291.168 447.934C286.071 444.094 278.154 439.1 272.74 435.813C268.422 433.19 263.443 433.06 259.956 429.138C254.655 423.176 252.793 427.974 251.886 423.298C251.733 422.51 250.678 421.642 250.45 420.751C249.386 416.586 245.97 416.956 248.006 416.907C250.354 416.851 255.982 418.224 257.76 416.454C261.605 412.627 245.275 400.403 242.196 397.617L241.699 397.94L242.172 397.604C237.672 398.369 240.957 399.029 239.595 403.84C239.42 396.607 238.539 387.232 243.952 381.626C249.68 375.696 260.674 375.325 266.582 381.175C271.9 386.441 271.017 393.362 271.018 400.216L271.004 416.963C346.694 408.278 410.407 348.321 417.515 271.292L403.112 271.318C398.719 271.345 393.695 271.851 389.427 270.778C374.191 266.949 373.425 245.35 388.906 241.302C394.786 239.765 410.476 240.502 417.515 240.515C417.408 236.315 416.616 231.97 415.894 227.834C403.559 157.2 342.119 100.749 271.004 93.011C271.543 99.6979 271.232 109.115 271.331 116.164C271.58 133.801 246.05 137.945 240.818 121.361C238.723 114.719 239.577 100.55 239.595 93.011C233.584 93.3926 227.389 94.6588 221.529 96.0293C154.917 111.608 102.183 168.794 96.2144 237.765C106.599 238.578 120.333 234.85 128.415 242.595C135.348 249.239 136.049 260.671 129.139 267.586C123.556 273.172 116.298 272.475 109.014 272.452L96.2144 272.439C97.2575 281.058 99.0214 289.27 100.891 297.734C99.5496 297.459 100.145 291.445 98.1173 294.571L97.8084 294.372C97.6448 293.839 97.5753 293.428 97.146 293.045C93.0381 293.87 89.5256 285.543 88.6476 282.359C86.5052 274.591 85.8049 274.957 81.6664 268.097C79.0628 263.782 76.9407 261.95 74.944 258.818C72.9427 255.678 76.0216 257.097 71.2717 251.166C70.4295 250.115 68.8513 245.357 67.8803 243.584C64.2299 236.919 54.873 225.557 53.3793 218.268C53.7495 217.022 53.8716 216.309 53.2451 215.151Z"/>
	<defs>
		<linearGradient id="gradient_1" gradientUnits="userSpaceOnUse" x1="149.15714" y1="374.77542" x2="363.04727" y2="134.92743">
			<stop offset="0" stop-color="#8FCFF6"/>
			<stop offset="1" stop-color="#EFF3EF"/>
		</linearGradient>
	</defs>
	<path fill="url(#gradient_1)" transform="scale(2 2)" d="M96.2144 237.765C102.183 168.794 154.917 111.608 221.529 96.0293C227.389 94.6588 233.584 93.3926 239.595 93.011C239.577 100.55 238.723 114.719 240.818 121.361C246.05 137.945 271.58 133.801 271.331 116.164C271.232 109.115 271.543 99.6979 271.004 93.011C342.119 100.749 403.559 157.2 415.894 227.834C416.616 231.97 417.408 236.315 417.515 240.515C410.476 240.502 394.786 239.765 388.906 241.302C373.425 245.35 374.191 266.949 389.427 270.778C393.695 271.851 398.719 271.345 403.112 271.318L417.515 271.292C410.407 348.321 346.694 408.278 271.004 416.963L271.018 400.216C271.017 393.362 271.9 386.441 266.582 381.175C260.674 375.325 249.68 375.696 243.952 381.626C238.539 387.232 239.42 396.607 239.595 403.84C239.576 408.21 239.885 412.601 239.595 416.963C233.287 414.962 226.419 414.419 219.941 412.904C185.317 404.808 149.47 381.123 128.146 353.05C115.686 336.648 106.627 317.446 100.891 297.734C99.0214 289.27 97.2575 281.058 96.2144 272.439L109.014 272.452C116.298 272.475 123.556 273.172 129.139 267.586C136.049 260.671 135.348 249.239 128.415 242.595C120.333 234.85 106.599 238.578 96.2144 237.765Z"/>
	<defs>
		<linearGradient id="gradient_2" gradientUnits="userSpaceOnUse" x1="249.64714" y1="274.17059" x2="308.23972" y2="214.4543">
			<stop offset="0" stop-color="#688FF3"/>
			<stop offset="1" stop-color="#CCEAF8"/>
		</linearGradient>
	</defs>
	<path fill="url(#gradient_2)" transform="scale(2 2)" d="M252.77 169.502C272 167.789 272.145 182.38 272.025 195.621L272.02 219.36C271.985 243.617 269.883 245.465 287.434 263.668C294.759 271.265 316.716 291.055 318.409 299.534C320.319 309.103 314.801 317.412 305.19 319.186C294.317 320.458 290.022 314.291 283.063 307.278L266.37 290.251C242.015 265.429 239.6 271.266 239.591 237.875L239.577 194.344C239.567 182.139 239.11 173.485 252.77 169.502Z"/>
</svg>
