<?xml version="1.0" encoding="utf-8" ?>
<svg xmlns="http://www.w3.org/2000/svg" xmlns:xlink="http://www.w3.org/1999/xlink" width="1024" height="1024">
	<defs>
		<linearGradient id="gradient_0" gradientUnits="userSpaceOnUse" x1="197.26913" y1="323.98773" x2="331.52264" y2="98.100693">
			<stop offset="0" stop-color="#96D5F4"/>
			<stop offset="1" stop-color="#E2EEF4"/>
		</linearGradient>
	</defs>
	<path fill="url(#gradient_0)" transform="scale(2 2)" d="M104.319 253.716C73.2958 269.709 46.2709 226.341 70.3474 203.102C75.646 197.988 81.9855 193.623 87.628 188.858L222.226 75.7251C227.612 71.1587 232.487 66.2685 238.904 63.0957C261.137 52.1038 277.105 64.367 292.767 77.7162L432.018 193.837C445.34 204.833 455.703 217.667 449.003 236.504C442.675 254.296 424.07 261.054 407.352 253.716C407.365 258.109 407.801 265.258 407.352 269.304C407.064 267.503 407.29 265.437 407.311 263.608L407.352 253.716C404.623 250.827 400.97 248.406 397.887 245.87L281.555 148.635C270.014 139.027 260.426 128.797 244.192 137.677C239.996 139.973 236.565 143.521 232.93 146.581L118.051 242.388C113.668 246.093 109.35 250.409 104.562 253.559L104.319 253.716Z"/>
	<defs>
		<linearGradient id="gradient_1" gradientUnits="userSpaceOnUse" x1="145.55611" y1="462.35733" x2="365.46527" y2="216.62048">
			<stop offset="0" stop-color="#5B9AF0"/>
			<stop offset="1" stop-color="#C2D4F5"/>
		</linearGradient>
	</defs>
	<path fill="url(#gradient_1)" transform="scale(2 2)" d="M104.319 253.716L104.562 253.559C109.35 250.409 113.668 246.093 118.051 242.388L232.93 146.581C236.565 143.521 239.996 139.973 244.192 137.677C260.426 128.797 270.014 139.027 281.555 148.635L397.887 245.87C400.97 248.406 404.623 250.827 407.352 253.716L407.311 263.608C407.29 265.437 407.064 267.503 407.352 269.304L407.36 396.83C407.359 404.078 407.794 411.787 406.433 418.926C403.259 435.57 387.167 447.633 370.528 447.817C353.32 448.006 336.086 447.793 318.875 447.793L163.248 447.806C155.307 447.808 144.665 448.437 137.098 447.275C121.45 444.871 108.345 432.51 105.303 416.92C103.857 409.51 104.306 401.458 104.309 393.933L104.319 253.716Z"/>
	<defs>
		<linearGradient id="gradient_2" gradientUnits="userSpaceOnUse" x1="204.04721" y1="348.18582" x2="308.54117" y2="322.40909">
			<stop offset="0" stop-color="#A1D5F4"/>
			<stop offset="1" stop-color="#E7EEF4"/>
		</linearGradient>
	</defs>
	<path fill="url(#gradient_2)" transform="scale(2 2)" d="M229.786 286.335L265.908 286.321C293.784 286.327 304.839 285.603 304.627 317.248L304.613 338.972C304.614 357.826 309.521 383.91 283.584 384.017L242.172 384.012C236.805 384.006 229.937 384.716 224.758 383.824C207.593 380.866 208.026 364.267 208.02 351.265L208.031 314.428C208.069 298.287 211.292 287.033 229.786 286.335Z"/>
</svg>
