<?xml version="1.0" encoding="utf-8" ?>
<svg xmlns="http://www.w3.org/2000/svg" xmlns:xlink="http://www.w3.org/1999/xlink" width="1024" height="1024">
	<defs>
		<linearGradient id="gradient_0" gradientUnits="userSpaceOnUse" x1="347.41214" y1="339.88315" x2="426.95468" y2="327.15884">
			<stop offset="0" stop-color="#84B7F0"/>
			<stop offset="1" stop-color="#98EFF3"/>
		</linearGradient>
	</defs>
	<path fill="url(#gradient_0)" transform="scale(2 2)" d="M391.893 299.981C391.95 301.243 391.956 302.461 391.893 303.724C395.292 304.087 398.867 303.745 402.294 303.735L423.946 303.724C424.138 310.273 423.945 316.795 423.944 323.343C423.943 336.265 425.939 349.115 416.279 359.266C403.974 372.195 372.809 367.767 355.619 367.771C354.275 367.651 352.901 367.742 351.553 367.771C352.194 347.301 352.097 324.151 351.553 303.724L391.893 303.724C391.863 302.476 391.883 301.229 391.893 299.981Z"/>
	<defs>
		<linearGradient id="gradient_1" gradientUnits="userSpaceOnUse" x1="428.91483" y1="240.144" x2="431.99796" y2="303.41431">
			<stop offset="0" stop-color="#C9DFF3"/>
			<stop offset="1" stop-color="#7EBDFB"/>
		</linearGradient>
	</defs>
	<path fill="url(#gradient_1)" transform="scale(2 2)" d="M423.946 239.311L438.311 239.311C470.607 241.998 482.137 277.833 459.51 296.399C448.866 305.132 436.804 303.762 423.946 303.724L402.294 303.735C398.867 303.745 395.292 304.087 391.893 303.724C391.956 302.461 391.95 301.243 391.893 299.981C391.342 283.036 391.683 264.537 391.893 247.551C391.796 244.822 391.905 242.047 391.893 239.311C402.556 239.097 413.286 239.174 423.946 239.311Z"/>
	<path fill="#B6E5F8" transform="scale(2 2)" d="M423.946 239.311L438.311 239.311C432.047 242.011 429.046 241.378 422.474 241.798C416.633 242.171 410.785 243.525 404.961 244.123C399.501 244.684 393.499 242.116 391.893 247.551C391.796 244.822 391.905 242.047 391.893 239.311C402.556 239.097 413.286 239.174 423.946 239.311Z"/>
	<defs>
		<linearGradient id="gradient_2" gradientUnits="userSpaceOnUse" x1="216.66783" y1="89.281586" x2="216.28314" y2="142.93674">
			<stop offset="0" stop-color="#D5E6F3"/>
			<stop offset="1" stop-color="#93C2F9"/>
		</linearGradient>
	</defs>
	<path fill="url(#gradient_2)" transform="scale(2 2)" d="M120.133 117.942C120.985 104.033 131.773 91.677 145.568 89.4909C151.447 88.5593 158.037 89.1034 164.015 89.1033L251.84 89.1111C270.053 89.1099 291.241 85.5676 304.572 101.007C315.364 113.506 312.011 127.14 312.753 142.056L312.561 142.673C311.363 143.127 277.652 142.662 273.448 142.752C269.197 142.559 264.839 142.747 260.575 142.748L131.59 142.758C127.782 142.764 123.933 142.957 120.133 142.752C120.603 137.353 120.613 123.374 120.133 117.942Z"/>
	<defs>
		<linearGradient id="gradient_3" gradientUnits="userSpaceOnUse" x1="73.580978" y1="425.23392" x2="319.24155" y2="133.20801">
			<stop offset="0" stop-color="#859FEE"/>
			<stop offset="1" stop-color="#E2FAEF"/>
		</linearGradient>
	</defs>
	<path fill="url(#gradient_3)" transform="scale(2 2)" d="M120.133 117.942C120.613 123.374 120.603 137.353 120.133 142.752C123.933 142.957 127.782 142.764 131.59 142.758L260.575 142.748C264.839 142.747 269.197 142.559 273.448 142.752C277.652 142.662 311.363 143.127 312.561 142.673L312.753 142.056C313.671 144.144 319.201 142.97 321.26 143.083C343.905 144.327 348.114 157.91 351.553 175.742C357.354 175.733 363.626 175.155 369.377 175.742L388.212 175.73C419.798 175.733 423.962 185.83 423.957 215.571L423.946 239.311C413.286 239.174 402.556 239.097 391.893 239.311C391.905 242.047 391.796 244.822 391.893 247.551C391.683 264.537 391.342 283.036 391.893 299.981C391.883 301.229 391.863 302.476 391.893 303.724L351.553 303.724C352.097 324.151 352.194 347.301 351.553 367.771C352.901 367.742 354.275 367.651 355.619 367.771C354.293 367.953 352.889 367.812 351.553 367.771C350.636 378.736 352.527 385.542 347.748 396.471C342.142 409.294 329.228 416.471 315.381 416.517L94.8277 416.49C87.1692 416.496 75.7285 417.134 68.4182 415.956C55.1077 413.812 43.0168 401.708 40.6993 388.454C39.3877 380.953 40.0314 372.581 40.0374 364.976L40.0315 184.11C40.0351 165.145 47.7083 149.27 67.7523 144.04C75.7631 141.95 84.758 142.741 92.9961 142.743L120.133 142.752L120.111 127.471C120.081 124.334 119.815 121.055 120.133 117.942Z"/>
	<path fill="white" transform="scale(2 2)" d="M312.753 142.056C313.671 144.144 319.201 142.97 321.26 143.083C343.905 144.327 348.114 157.91 351.553 175.742C357.354 175.733 363.626 175.155 369.377 175.742L351.553 175.742L351.559 196.689C351.562 200.272 351.715 203.924 351.553 207.5C351.223 206.77 351.069 180.109 350.859 176.392C350.671 173.069 348.945 172.227 348.766 170.19C348.384 165.865 350.761 166.44 347.893 160.856C340.281 146.037 329.103 143.683 314.301 143.271C312.314 143.216 310.226 144.355 308.323 143.718C299.658 140.819 282.323 144.553 273.448 142.752C277.652 142.662 311.363 143.127 312.561 142.673L312.753 142.056Z"/>
	<defs>
		<linearGradient id="gradient_4" gradientUnits="userSpaceOnUse" x1="284.138" y1="249.15695" x2="281.93103" y2="294.91226">
			<stop offset="0" stop-color="#A4DEF3"/>
			<stop offset="1" stop-color="#75ABFB"/>
		</linearGradient>
	</defs>
	<path fill="url(#gradient_4)" transform="scale(2 2)" d="M285.587 249.098C299.927 247.653 314.623 260.091 312.386 275.062C310.274 289.193 294.947 297.243 281.694 295.211C276.729 294.201 264.689 287.315 260.429 284.104C239.573 268.383 270.118 250.675 285.587 249.098Z"/>
	<path fill="white" transform="scale(2 2)" d="M351.553 239.311L391.893 239.311C391.905 242.047 391.796 244.822 391.893 247.551C391.683 264.537 391.342 283.036 391.893 299.981C391.883 301.229 391.863 302.476 391.893 303.724L351.553 303.724C351.73 298.166 351.562 292.55 351.56 286.988L351.548 253.949C351.545 249.082 351.369 244.173 351.553 239.311Z"/>
	<defs>
		<linearGradient id="gradient_5" gradientUnits="userSpaceOnUse" x1="348.16635" y1="213.11508" x2="423.67368" y2="202.13098">
			<stop offset="0" stop-color="#86B9F1"/>
			<stop offset="1" stop-color="#99EFF3"/>
		</linearGradient>
	</defs>
	<path fill="url(#gradient_5)" transform="scale(2 2)" d="M369.377 175.742L388.212 175.73C419.798 175.733 423.962 185.83 423.957 215.571L423.946 239.311C413.286 239.174 402.556 239.097 391.893 239.311L351.553 239.311C351.694 228.717 351.625 218.095 351.553 207.5C351.715 203.924 351.562 200.272 351.559 196.689L351.553 175.742L369.377 175.742Z"/>
	<defs>
		<linearGradient id="gradient_6" gradientUnits="userSpaceOnUse" x1="166.71315" y1="330.60489" x2="162.39656" y2="215.68816">
			<stop offset="0" stop-color="#B3D3EE"/>
			<stop offset="1" stop-color="#E6F5F2"/>
		</linearGradient>
	</defs>
	<path fill="url(#gradient_6)" transform="scale(2 2)" d="M163.823 215.251L201.693 215.245C209.134 215.243 219.233 214.67 226.391 216.099C246.331 220.079 247.991 237.211 248.001 253.295L248.026 293.595C248.034 299.073 248.357 304.728 247.319 310.128C243.759 328.662 225.852 328.976 211.396 328.966L171.011 328.973C160.915 328.987 152.244 329.461 143.966 322.7C136.027 316.379 135.916 305.939 135.948 296.73L135.973 282.406C129.084 286.356 122.447 292.171 114.886 294.689C92.9202 302.003 72.1515 280.877 82.8652 260.397C87.8519 250.865 97.4182 246.907 107.724 247.28C120.098 247.729 125.613 255.419 135.646 260.739L135.973 260.911L135.985 248.442C136.165 228.798 142.85 216.836 163.823 215.251Z"/>
</svg>
