<svg version="1.1" xmlns="http://www.w3.org/2000/svg" style="display: block;" viewBox="0 0 2048 2048" width="512" height="512">
<defs>
	<linearGradient id="Gradient1" gradientUnits="userSpaceOnUse" x1="1441.27" y1="1419.44" x2="424.368" y2="452.644">
		<stop class="stop0" offset="0" stop-opacity="1" stop-color="rgb(133,182,245)"/>
		<stop class="stop1" offset="1" stop-opacity="1" stop-color="rgb(222,245,239)"/>
	</linearGradient>
	<linearGradient id="Gradient2" gradientUnits="userSpaceOnUse" x1="1288.16" y1="1350.15" x2="758.629" y2="694.957">
		<stop class="stop0" offset="0" stop-opacity="1" stop-color="rgb(104,145,242)"/>
		<stop class="stop1" offset="1" stop-opacity="1" stop-color="rgb(153,226,241)"/>
	</linearGradient>
</defs>
<path transform="translate(0,0)" fill="rgb(141,176,247)" d="M 1706.04 858.89 C 1753.72 863.755 1790.71 847.073 1826.97 891.061 C 1847.48 915.937 1847.18 940.155 1847.14 970.668 L 1847.05 1023.82 C 1847.04 1082.99 1861.55 1170.74 1785.17 1189.32 C 1741.8 1199.87 1691.68 1188.09 1649.87 1192.87 C 1628.67 1253.03 1612.54 1285.38 1584 1339.53 L 1636.02 1391.53 C 1671.21 1426.82 1715.03 1470.32 1683.06 1526.52 C 1666.23 1556.11 1580.41 1636.99 1552.83 1663.75 C 1523.04 1692.65 1474.87 1701.43 1438.25 1680.22 C 1417.73 1668.33 1400.39 1647.07 1383.59 1630.35 L 1335.99 1583.39 C 1290.02 1611.12 1243.44 1636.23 1191.92 1652.26 L 1192.03 1715.27 C 1192.21 1810.25 1163.5 1850.22 1062.68 1846 C 1059.39 1843.93 998.508 1843.58 991.193 1843.5 L 991.28 1842.75 C 998.884 1835.08 1015.1 1847.36 1022.7 1837.65 C 1021.31 1834.3 1015.62 1834.07 1013.19 1830.58 C 1012.11 1822.02 1050.05 1753.82 1059.72 1746.01 C 1070.2 1737.55 1066.02 1747.48 1072.85 1733.94 C 1089.67 1700.61 1138.74 1676.17 1156.41 1652.01 C 1169.14 1634.59 1177.67 1639.08 1187.76 1628.87 C 1194.47 1622.07 1190.33 1608.28 1212.08 1593.72 C 1234.15 1578.94 1278.13 1571.32 1294.81 1557.15 C 1305.11 1548.4 1317.28 1534.73 1327.69 1527.62 C 1342.23 1517.68 1373.07 1496 1376.11 1478.51 C 1410.44 1482.55 1446.28 1367.97 1460.32 1347.56 C 1473.35 1328.65 1495.19 1322.43 1513.51 1310.18 C 1528.84 1299.93 1541.93 1288.38 1555.95 1278.56 C 1584.4 1258.63 1596.04 1219.6 1611.37 1211.13 C 1615.64 1208.78 1620.61 1208.7 1624.88 1206 C 1621.75 1215.65 1630.72 1199.17 1641.36 1196.31 L 1642.37 1193.81 C 1641.04 1192.09 1638.19 1192.24 1636.06 1191.88 L 1634.62 1189.83 C 1633.32 1182.71 1651.19 1100.95 1654.67 1090.13 C 1659.82 1074.17 1664.93 1057.13 1668.55 1040.76 C 1677.87 998.532 1669.65 1026.73 1689.27 993.805 C 1693.56 986.612 1695.05 978.016 1698.78 970.541 C 1712.53 942.986 1729.04 923.393 1721.06 889.504 C 1718.59 879.049 1713.03 872.994 1721.36 862.342 C 1716.12 859.784 1711.41 863.44 1706.04 858.89 z"/>
<path transform="translate(0,0)" fill="url(#Gradient1)" d="M 857.211 400.171 C 857.028 396.092 856.916 392.015 856.916 387.932 L 857.123 332.674 C 857.468 218.759 894.836 199.747 1001.69 200.037 L 1072.77 200.002 C 1171.22 200.208 1191.92 245.917 1191.99 336.802 L 1191.92 400.171 C 1248.81 411.522 1291.9 432.804 1342.35 459.867 C 1377.79 426.504 1430.05 359.39 1476.66 356.913 C 1530.7 354.041 1551.55 388.754 1585.65 422.397 L 1638.42 474.407 C 1664.65 500.183 1688.63 520.528 1690.09 559.927 C 1692.44 623.568 1624.87 664.132 1584 708.533 C 1593.96 731.144 1609.08 752.147 1620.31 774.335 C 1634.72 802.806 1645.05 833.377 1656.93 862.953 C 1673.7 863.048 1689.51 861.884 1706.04 858.89 C 1711.41 863.44 1716.12 859.784 1721.36 862.342 C 1713.03 872.994 1718.59 879.049 1721.06 889.504 C 1729.04 923.393 1712.53 942.986 1698.78 970.541 C 1695.05 978.016 1693.56 986.612 1689.27 993.805 C 1669.65 1026.73 1677.87 998.532 1668.55 1040.76 C 1664.93 1057.13 1659.82 1074.17 1654.67 1090.13 C 1651.19 1100.95 1633.32 1182.71 1634.62 1189.83 L 1636.06 1191.88 C 1638.19 1192.24 1641.04 1192.09 1642.37 1193.81 L 1641.36 1196.31 C 1630.72 1199.17 1621.75 1215.65 1624.88 1206 C 1620.61 1208.7 1615.64 1208.78 1611.37 1211.13 C 1596.04 1219.6 1584.4 1258.63 1555.95 1278.56 C 1541.93 1288.38 1528.84 1299.93 1513.51 1310.18 C 1495.19 1322.43 1473.35 1328.65 1460.32 1347.56 C 1446.28 1367.97 1410.44 1482.55 1376.11 1478.51 C 1373.07 1496 1342.23 1517.68 1327.69 1527.62 C 1317.28 1534.73 1305.11 1548.4 1294.81 1557.15 C 1278.13 1571.32 1234.15 1578.94 1212.08 1593.72 C 1190.33 1608.28 1194.47 1622.07 1187.76 1628.87 C 1177.67 1639.08 1169.14 1634.59 1156.41 1652.01 C 1138.74 1676.17 1089.67 1700.61 1072.85 1733.94 C 1066.02 1747.48 1070.2 1737.55 1059.72 1746.01 C 1050.05 1753.82 1012.11 1822.02 1013.19 1830.58 C 1015.62 1834.07 1021.31 1834.3 1022.7 1837.65 C 1015.1 1847.36 998.884 1835.08 991.28 1842.75 L 991.193 1843.5 C 998.508 1843.58 1059.39 1843.93 1062.68 1846 C 1053.62 1846.99 1043.51 1846.09 1034.31 1846.07 L 975.828 1845.96 C 875.592 1845.78 857.202 1798.31 857.157 1706.79 L 857.211 1647.73 C 807.422 1631.37 758.733 1612.96 715.054 1583.39 C 675.537 1623.88 623.79 1688.19 566.511 1686.82 C 524.574 1685.81 501.369 1662.72 472.949 1634.92 L 431.876 1594.38 C 396.189 1558.93 358.225 1531.76 360.72 1475.52 C 362.608 1432.98 388.079 1409.63 417.132 1382.28 L 463.095 1339.53 C 439.979 1295.98 413.771 1241.27 404.28 1192.87 L 330.878 1192.98 C 291.396 1193.01 257.247 1196.62 226.811 1166.92 C 187.996 1129.04 198.945 1063.89 198.917 1012.88 C 198.887 957.747 190.076 886.15 258.419 864.772 C 289.956 854.908 360.923 859.06 397.117 858.89 C 416.14 813.294 431.973 745.226 463.095 708.533 C 433.338 683.59 366.136 617.651 360.027 583.392 C 350.666 530.901 371.515 505.331 405.893 471.765 L 444.193 434.287 C 513.493 365.942 558.12 311.819 643.407 397.584 L 682.994 437.624 C 690.542 445.262 697.516 453.803 706.474 459.867 C 754.26 444.661 802.123 403.9 857.211 400.171 z M 982.557 599.817 C 603.978 649.276 456.539 1120.68 766.815 1357.9 C 863.909 1432.13 951.812 1444.3 1067.24 1444.16 C 1094.24 1438.78 1120.86 1434.64 1147.32 1426.7 C 1491.79 1323.37 1554.82 865.883 1256.69 668.369 C 1157.11 602.392 1092.91 599.626 982.557 599.817 z"/>
<path transform="translate(0,0)" fill="url(#Gradient2)" d="M 982.557 599.817 C 1092.91 599.626 1157.11 602.392 1256.69 668.369 C 1554.82 865.883 1491.79 1323.37 1147.32 1426.7 C 1120.86 1434.64 1094.24 1438.78 1067.24 1444.16 C 951.812 1444.3 863.909 1432.13 766.815 1357.9 C 456.539 1120.68 603.978 649.276 982.557 599.817 z M 1012.76 786.055 C 950.521 788.467 892.665 818.343 850.73 863.504 C 711.189 1013.78 826.211 1266.19 1031.58 1257.19 L 1035.17 1257 C 1161.76 1255.44 1260.61 1138.18 1258.84 1015.45 C 1256.97 885.537 1144.16 775.884 1012.76 786.055 z"/>
</svg>