<?xml version="1.0" encoding="utf-8" ?>
<svg xmlns="http://www.w3.org/2000/svg" xmlns:xlink="http://www.w3.org/1999/xlink" width="1024" height="1024">
	<defs>
		<linearGradient id="gradient_0" gradientUnits="userSpaceOnUse" x1="393.8739" y1="293.78488" x2="409.49966" y2="208.76341">
			<stop offset="0" stop-color="#88B4F6"/>
			<stop offset="1" stop-color="#C6D2F4"/>
		</linearGradient>
	</defs>
	<path fill="url(#gradient_0)" transform="scale(2 2)" d="M423.338 241.549C418.713 237.672 411.253 231.616 410.622 225.312C409.402 213.127 423.648 206.698 433.212 215.27C441.002 222.252 448.169 230.156 455.445 237.678C462.982 245.471 473.162 254.342 462.54 266.127C455.423 274.022 447.46 281.469 439.838 288.869C435.307 293.267 431.275 299.487 424.402 299.709C417.064 299.945 410.744 293.421 410.739 286.187C410.733 278.669 418.686 273.44 423.338 268.422L337.459 268.422L337.459 241.549L411.526 241.561C415.455 241.592 419.413 241.764 423.338 241.549Z"/>
	<defs>
		<linearGradient id="gradient_1" gradientUnits="userSpaceOnUse" x1="454.71472" y1="360.96805" x2="286.31451" y2="384.15283">
			<stop offset="0" stop-color="#C8E8EE"/>
			<stop offset="1" stop-color="#9CDEFA"/>
		</linearGradient>
	</defs>
	<path fill="url(#gradient_1)" transform="scale(2 2)" d="M336.902 329.987L428.85 329.971C453.138 329.914 452.844 334.21 452.92 355.086C452.985 373.04 455.452 390.671 440.925 404.302C430.071 414.487 416.299 413.731 402.415 413.733L340.664 413.727C333.934 413.732 327.141 413.926 320.417 413.699C301.843 413.072 286.146 400.362 285.819 381.08C285.766 377.997 286.061 374.891 285.788 371.817C306.194 369.904 324.786 361.471 333.299 341.226C334.783 337.695 335.364 333.927 336.736 330.406L336.902 329.987Z"/>
	<path fill="#B6E5F8" transform="scale(2 2)" d="M285.788 135.851C285.743 111.328 298.943 94.2127 324.539 94.197L408.148 94.2188C421.043 94.2011 430.945 94.3924 440.803 104.23C452.382 115.785 451.728 127.278 451.738 142.265L451.781 163.639C451.713 181.874 438.477 181.244 424.186 181.245L358.051 181.239C351.316 181.241 344.464 181.528 337.741 181.248L337.459 181.235C337.245 178.873 336.591 176.242 335.907 173.972C332.15 155.803 316.359 140.423 298.141 137.124C294.097 136.392 289.88 136.297 285.788 135.851Z"/>
	<defs>
		<linearGradient id="gradient_2" gradientUnits="userSpaceOnUse" x1="131.11852" y1="392.14639" x2="250.09961" y2="115.58989">
			<stop offset="0" stop-color="#6CB5F4"/>
			<stop offset="1" stop-color="#EFFDF4"/>
		</linearGradient>
	</defs>
	<path fill="url(#gradient_2)" transform="scale(2 2)" d="M285.788 371.817C269.888 371.608 253.96 371.817 238.056 371.818L108.397 371.825C88.8099 371.832 73.1492 372.71 57.9786 357.658C48.092 347.849 43.6904 335.43 43.6504 321.637L43.6437 198.119C43.6317 191.328 43.1373 184.212 44.4862 177.536C48.6215 157.069 64.2935 140.841 84.8765 136.756C91.8944 135.363 99.7137 135.838 106.846 135.844L248.558 135.851C259.461 135.837 275.478 136.942 285.788 135.851C289.88 136.297 294.097 136.392 298.141 137.124C316.359 140.423 332.15 155.803 335.907 173.972C336.591 176.242 337.245 178.873 337.459 181.235C337.32 188.067 337.456 194.916 337.458 201.751L337.459 241.549L337.459 268.422L336.902 329.987L336.736 330.406C335.364 333.927 334.783 337.695 333.299 341.226C324.786 361.471 306.194 369.904 285.788 371.817Z"/>
	<path fill="white" transform="scale(2 2)" d="M248.558 135.851C259.461 135.837 275.478 136.942 285.788 135.851C289.88 136.297 294.097 136.392 298.141 137.124C316.359 140.423 332.15 155.803 335.907 173.972L335.457 174.081C333.41 172.544 323.48 160.603 321.372 157.75C318.465 153.818 315.638 148.68 312.859 145.169C311.487 143.434 309.467 142.371 308.134 140.584C305.163 141.863 303.453 139.25 300.846 138.515C297.25 137.501 293.269 138.259 289.602 137.673C282.844 136.595 249.06 136.106 248.558 135.851Z"/>
	<defs>
		<linearGradient id="gradient_3" gradientUnits="userSpaceOnUse" x1="164.55736" y1="234.87923" x2="154.39702" y2="274.80005">
			<stop offset="0" stop-color="#B4C0EE"/>
			<stop offset="1" stop-color="#6CABF7"/>
		</linearGradient>
	</defs>
	<path fill="url(#gradient_3)" transform="scale(2 2)" d="M127.74 241.549C131.021 241.309 134.47 241.538 137.772 241.538L178.969 241.54C185.028 241.542 193.247 240.526 198.553 244.101C210.038 251.84 204.394 266.424 191.992 268.422C188.896 268.674 185.648 268.449 182.535 268.44L141.927 268.433C135.201 268.434 125.363 269.73 119.647 265.34C109.524 257.565 114.857 242.876 127.74 241.549Z"/>
</svg>
